<?xml version="1.0" standalone="no"?>
<!DOCTYPE svg PUBLIC "-//W3C//DTD SVG 20010904//EN"
 "http://www.w3.org/TR/2001/REC-SVG-20010904/DTD/svg10.dtd">
<svg version="1.0" xmlns="http://www.w3.org/2000/svg"
 width="512.000000pt" height="512.000000pt" viewBox="0 0 512.000000 512.000000"
 preserveAspectRatio="xMidYMid meet">

<g transform="translate(0.000000,512.000000) scale(0.100000,-0.100000)"
fill="#000000" stroke="none">
<path d="M1551 4436 c-8 -10 -11 -487 -9 -1844 l3 -1830 23 -31 c12 -16 22
-35 22 -40 0 -15 123 -121 141 -121 8 0 30 -11 47 -24 18 -13 51 -26 73 -30
23 -4 55 -14 71 -22 17 -9 79 -22 139 -30 59 -8 120 -19 134 -24 34 -13 215
-25 249 -16 l26 6 0 874 c0 800 1 875 17 887 13 11 116 15 542 19 457 4 530 7
556 21 17 9 52 21 79 28 27 7 63 22 79 34 48 35 147 134 147 147 0 7 9 23 20
37 11 14 22 41 26 62 4 20 16 59 26 86 26 66 38 274 17 292 -16 12 -69 5 -209
-30 -80 -20 -116 -21 -668 -25 -523 -3 -586 -2 -607 12 l-25 16 0 441 0 440
35 15 c29 12 141 14 695 14 l661 0 71 30 c62 27 113 59 143 91 6 6 19 20 31
32 12 12 31 41 42 64 12 23 26 44 31 47 5 3 12 22 15 42 4 20 16 52 26 72 11
23 22 77 28 142 9 92 8 107 -6 118 -25 19 -2675 18 -2691 -2z"/>
</g>
</svg>
